<svg xmlns="http://www.w3.org/2000/svg" viewBox="0 0 37.869 37.225">
  <defs>
    <style>
      .cls-1 {
        fill: #818181;
        stroke: #818181;
        stroke-width: 0.5px;
      }
    </style>
  </defs>
  <g id="calendar" transform="translate(0.25 0.25)">
    <path id="Path_422" data-name="Path 422" class="cls-1" d="M27.64,3.077A3.227,3.227,0,0,0,24.483.5a.644.644,0,0,0,0,1.289,1.933,1.933,0,1,1,0,3.866.644.644,0,0,0,0,1.289A3.228,3.228,0,0,0,27.64,4.366H36.08v4.51H1.289V4.366H12.242a.644.644,0,1,0,0-1.289h-1.17a1.93,1.93,0,1,1,1.814,2.577.644.644,0,1,0,0,1.289A3.221,3.221,0,1,0,9.729,3.077H0V37.225H37.369V3.077Zm-8.311,7.087H27.06V17.9H19.329ZM27.06,26.916H19.329V19.185H27.06ZM10.309,19.185H18.04v7.732H10.309Zm0-9.02H18.04V17.9H10.309Zm-9.02.644v-.644H9.02V17.9H1.289Zm0,8.376H9.02v7.732H1.289Zm0,16.752V28.2H9.02v7.732Zm9.02,0V28.2H18.04v7.732Zm9.02,0V28.2H27.06v7.732Zm16.752,0H28.349V28.2H36.08Zm0-9.02H28.349V19.185H36.08ZM28.349,17.9V10.164H36.08V17.9Z" transform="translate(0 -0.5)"/>
    <path id="Path_423" data-name="Path 423" class="cls-1" d="M25.644,1.789a1.933,1.933,0,0,1,0,3.866.644.644,0,1,0,0,1.289,3.221,3.221,0,0,0,0-6.443.644.644,0,1,0,0,1.289Z" transform="translate(-8.893 -0.5)"/>
    <path id="Path_424" data-name="Path 424" class="cls-1" d="M31.644,1.789a1.933,1.933,0,1,1,0,3.866.644.644,0,1,0,0,1.289,3.221,3.221,0,1,0,0-6.443.644.644,0,1,0,0,1.289Z" transform="translate(-11.027 -0.5)"/>
    <path id="Path_425" data-name="Path 425" class="cls-1" d="M31.189,36.754a.644.644,0,0,0,.911,0l2.122-2.122,2.122,2.122a.644.644,0,1,0,.911-.911l-2.122-2.122L37.254,31.6a.644.644,0,1,0-.911-.911L34.221,32.81,32.1,30.689a.644.644,0,0,0-.911.911l2.122,2.122-2.122,2.122A.644.644,0,0,0,31.189,36.754Z" transform="translate(-11.027 -11.171)"/>
  </g>
</svg>
