<svg xmlns="http://www.w3.org/2000/svg" xmlns:xlink="http://www.w3.org/1999/xlink" viewBox="0 0 704.86 568.72"><defs><style>.cls-1{isolation:isolate;}.cls-2{fill:#e9ebfb;}.cls-3{fill:#c6cbe9;}.cls-4{fill:#81b7fb;}.cls-5{fill:#fff;}.cls-6{fill:#f0c4aa;}.cls-7{fill:url(#linear-gradient);}.cls-8{fill:#271b54;}.cls-9{fill:#eef0f7;}.cls-10{fill:#34234d;}.cls-11{fill:#342465;}.cls-12{fill:#8e76b4;}.cls-13{fill:#8b73b3;}.cls-14{fill:#49215d;}.cls-15{fill:url(#linear-gradient-2);}.cls-16{fill:#fcd3b2;}.cls-17{fill:url(#linear-gradient-3);}.cls-18{opacity:0.19;}.cls-19{fill:#211f1f;}.cls-20{fill:#ff6194;}.cls-21{fill:url(#linear-gradient-4);}.cls-22{fill:url(#linear-gradient-5);}.cls-23{fill:url(#linear-gradient-6);}.cls-24{fill:#592963;opacity:0.18;}.cls-24,.cls-25{mix-blend-mode:multiply;}.cls-25{fill:#f05f7d;opacity:0.51;}</style><linearGradient id="linear-gradient" x1="1328.55" y1="534.89" x2="1688.55" y2="410.89" gradientTransform="matrix(-1, 0, 0, 1, 1787.68, 0)" gradientUnits="userSpaceOnUse"><stop offset="0" stop-color="#a8206e"/><stop offset="1" stop-color="#601f5f"/></linearGradient><linearGradient id="linear-gradient-2" x1="1501.92" y1="263.76" x2="1688.77" y2="263.76" gradientTransform="matrix(-1, 0, 0, 1, 1787.68, 0)" gradientUnits="userSpaceOnUse"><stop offset="0" stop-color="#b82c27"/><stop offset="1" stop-color="#423091"/></linearGradient><linearGradient id="linear-gradient-3" x1="1779.42" y1="513.62" x2="1528.42" y2="302.62" gradientTransform="matrix(-1, 0, 0, 1, 1787.68, 0)" gradientUnits="userSpaceOnUse"><stop offset="0" stop-color="#7c61a9"/><stop offset="1" stop-color="#423091"/></linearGradient><linearGradient id="linear-gradient-4" x1="1721.34" y1="435.49" x2="1628.8" y2="367.51" xlink:href="#linear-gradient-3"/><linearGradient id="linear-gradient-5" x1="1588.5" y1="297.76" x2="1689.05" y2="297.76" xlink:href="#linear-gradient-2"/><linearGradient id="linear-gradient-6" x1="1732.6" y1="406.14" x2="1672.47" y2="361.97" xlink:href="#linear-gradient-3"/></defs><title>Asset 3</title><g class="cls-1"><g id="Layer_2" data-name="Layer 2"><g id="Why_HackIT" data-name="Why HackIT"><path class="cls-2" d="M487.6,212C362.77,136.52,303.85-95.24,111.14,43.26S-1.66,466.29,183,535.1,605.28,565,672.14,437.21C786.39,218.77,571.34,262.56,487.6,212Z"/><path class="cls-3" d="M641.89,49.13v70.13a11,11,0,0,1-11,10.94H481.39a11,11,0,0,1-11-10.94V49.13a10.94,10.94,0,0,1,11-10.93H630.93A10.94,10.94,0,0,1,641.89,49.13Z"/><path class="cls-4" d="M641.89,49.13V55.2H470.43V49.13a10.94,10.94,0,0,1,11-10.93H630.93A10.94,10.94,0,0,1,641.89,49.13Z"/><circle class="cls-5" cx="480.1" cy="47.51" r="2.3"/><path class="cls-5" d="M491.59,47.51a2.3,2.3,0,1,1-2.3-2.3A2.3,2.3,0,0,1,491.59,47.51Z"/><path class="cls-5" d="M500.78,47.51a2.3,2.3,0,1,1-2.3-2.3A2.3,2.3,0,0,1,500.78,47.51Z"/><rect class="cls-5" x="491.7" y="65.37" width="38.49" height="31.93" rx="0.83"/><path class="cls-5" d="M618.18,112.24H491.71a2.42,2.42,0,0,1-2.42-2.42h0a2.42,2.42,0,0,1,2.42-2.42H618.18a2.42,2.42,0,0,1,2.42,2.42h0A2.43,2.43,0,0,1,618.18,112.24Z"/><path class="cls-5" d="M618.18,94H541.45A2.42,2.42,0,0,1,539,91.55h0a2.42,2.42,0,0,1,2.42-2.42h76.73a2.42,2.42,0,0,1,2.42,2.42h0A2.42,2.42,0,0,1,618.18,94Z"/><path class="cls-5" d="M589,76.8H541.45A2.43,2.43,0,0,1,539,74.38h0A2.42,2.42,0,0,1,541.45,72H589a2.42,2.42,0,0,1,2.42,2.42h0A2.42,2.42,0,0,1,589,76.8Z"/><path class="cls-6" d="M464.89,511.19c2.66,2,5.31,3.95,7.94,5.9,5.6-2.81,12.63-3.64,15-10.88.1-.78.21-1.56.29-2.31.38-3,.48-6-2-8.53l-4.56-5.12-8.93,9.66a4.7,4.7,0,0,0-1,.32,8.27,8.27,0,0,0-2.39,1.42,4.06,4.06,0,0,0-.37.32,2,2,0,0,0-.35.29,45.63,45.63,0,0,0-3.22,3.46,11.13,11.13,0,0,0-1.29,2,4.88,4.88,0,0,0-.4.83A2.38,2.38,0,0,0,464.89,511.19Z"/><path class="cls-7" d="M488.91,486.3,450.6,522.07c-25.49-17.08-45.21-31.18-58.47-40.85-15.25-11.14-24-17.89-37.27-18.88-18.22-1.34-33.27,9-41.36,15.77,4.39.19,29,1.6,35.8,16.45,1.75,3.81,1.42,10.16.76,22.85-.77,14.79-1.22,22.29-4.71,27.62-5.57,8.52-15.38,11.29-21.18,12.79-38.09,9.86-141.7,0-141.7,0s-51.76-8.42-60.14-74.68,136.06-60.52,136.06-60.52c12.65-6.77,30.66-16.07,52.83-26.31,29.08-13.44,35.17-14.58,41.12-14.55,21.9.1,36,16,60.94,39.69C430.25,437.55,455.42,460.25,488.91,486.3Z"/><path class="cls-8" d="M472.84,519.39c-1,7,7.68,8.83,8.16,15.06,1.09,4.87-2.25,10.58,2.77,14.71l5.14,7.17c2.35,2.18,5,1.7,7.34.31,20.14-12,39.73-24.7,56-41.88,2.32-2.45,5.24-5.05,3.38-9.21-4.63-4.48-9-.43-13.46.46-15.41,3.11-30.9,7.76-45.23-3.38-3.8.07-6.83,1.89-9.62,4.24C483.23,511.93,476.16,513.51,472.84,519.39Z"/><path class="cls-9" d="M554.56,507a182.08,182.08,0,0,1-65.65,50.74c3,6.7,7.14,8.11,13.6,3.74,21.7-14.66,42.86-30,61.65-48.35a4.78,4.78,0,0,0,1.09-2c.52-1.83.11-4.54-1.64-5.66-1.34-.87-3-.45-5.67.27A19.14,19.14,0,0,0,554.56,507Z"/><path class="cls-10" d="M486.17,497.65c-.15,3.72-3.66,8,1.68,10.83,3.24-1.6,6.94-2.48,9-5.85C493.89,499.74,490.94,496.73,486.17,497.65Z"/><path class="cls-11" d="M493.55,534.51c3.72-.27,5.4-2.53,5.78-5.89.49-4.25-1.3-6.77-5.78-6.54-3.22.17-6.32,1.36-6.34,5.11C487.19,531.13,490.36,533,493.55,534.51Z"/><path class="cls-12" d="M410.5,365.47a0,0,0,0,0,0,0l.66-.07a.54.54,0,0,0,0-.18,4.64,4.64,0,0,1-.66.22Z"/><path class="cls-13" d="M410.5,365.47a0,0,0,0,0,0,0l.66-.07a.54.54,0,0,0,0-.18,4.64,4.64,0,0,1-.66.22Z"/><path class="cls-14" d="M410.5,365.47a0,0,0,0,0,0,0l.66-.07a.54.54,0,0,0,0-.18,4.64,4.64,0,0,1-.66.22Z"/><path class="cls-15" d="M176.23,349.82c16.94.85,35-1.39,54.25-3.78A155.11,155.11,0,0,0,247.24,343a141.63,141.63,0,0,0,24.37-8.37s25.9-19.81,7.62-46.46-7.62-5.34-7.62-5.34l-3.09-25.89L257.9,241.7c.91-3.69,5.13-22.38-6.09-40.37-1.12-1.79-14-21.74-37.32-23.61-3.16-.26-21.1-1.7-29.71,9.14-6.12,7.7-.89,13.28-6.85,23.61S163.76,220,152.79,231a62.91,62.91,0,0,0-14.47,23.61c-22.45,6.89-38.24,22.74-39.34,39.68C97.34,319.5,128.86,335.85,136.8,340c12.44,6.42,25.56,9.18,39.43,9.87"/><path class="cls-16" d="M246.48,231c-19.27-22.05-28.2-24.9-32.75-22.85-3.36,1.52-2.72,5-8.38,9.14-7.3,5.38-12.58,2.73-18.28,8.38-1.18,1.17-5,5-4.57,9.9.39,4.56,4.25,8.67,9.84,10.67l5,26.63a113.79,113.79,0,0,0,23.23.08c7.28-.84,14.42-2.8,18.27-6.94C248.76,255.41,246.48,231,246.48,231Z"/><polygon class="cls-16" points="208.4 291.96 196.17 280 197.36 272.9 220.59 272.98 208.4 291.96"/><path class="cls-17" d="M236.58,289.68s35,4.57,32.75,51L267,387.17l18.72,16s-31.72,23.8-68,45.69c-70.49,42.54-87.83,40-95.42,34.28-3.57-2.69-9.18-9.21-12.19-17.52,0,0-1.61-4.45-3.81-23.61h0l-3.4-130.8Z"/><g class="cls-18"><path class="cls-19" d="M247.08,331.62c1.74,3.1,3.29,6.29,4.72,9.55a88.19,88.19,0,0,1,3.72,10c.57,1.69,1,3.43,1.44,5.15s.81,3.47,1,5.25a50.42,50.42,0,0,1,.69,10.7l-.21,2.69a26.94,26.94,0,0,1-.42,2.67,44.31,44.31,0,0,1-1.23,5.24,28,28,0,0,1-4.86,9.66,30.21,30.21,0,0,1-3.93,3.76c-1.39,1.13-2.8,2.22-4.26,3.24s-2.92,2-4.4,3L237.11,404c-.39.23-.76.45-1.17.67l0,0,0,0a.31.31,0,0,1-.17,0c-.24-.12,0-.49-.07-.35l0,0,0,0,.14-.1.29-.18.56-.36.15.21-.52.42-.25.21-.12.1,0,0h0c-.06.15.15-.21-.09-.31a.15.15,0,0,0-.13,0h0l0,0c.35-.23.71-.5,1.07-.76l2.12-1.6c1.41-1.06,2.82-2.14,4.2-3.24s2.76-2.2,4.08-3.35a29.52,29.52,0,0,0,3.7-3.62,26.89,26.89,0,0,0,4.7-9.19,45,45,0,0,0,1.22-5.1,24.79,24.79,0,0,0,.43-2.58l.22-2.61a54.2,54.2,0,0,0-.56-10.48c-.19-1.75-.61-3.46-.93-5.19s-.79-3.43-1.32-5.12a111.39,111.39,0,0,0-7.81-19.68Z"/></g><path class="cls-5" d="M254.39,352.33s-88,9-108.8,7.63c-1.29-.09-7.46-1.55-11.23,1.82a9,9,0,0,0-2.61,4.55l124-9.15C255.3,355.56,254.85,353.94,254.39,352.33Z"/><path class="cls-5" d="M256.44,365.65l-131.07,7.81,3.91,4.77,127.16-6.47Z"/><path class="cls-20" d="M217.64,277.57c5.31,4.63,6.14,6.15,5.82,6.65-.67,1-6.52-2.53-15-4.44a52.4,52.4,0,0,0-13.17-1.25c-.79,0-1.53.06-2.21.11q-2.44,8.28-4.88,16.56a72.34,72.34,0,0,0,38.28,2.52c3.16-.65,7.67-2.8,8.63-6.64.9-3.67-2.08-7.13-3-8.2a15.86,15.86,0,0,0-9.56-5,22.78,22.78,0,0,0-4-.31Z"/><path class="cls-20" d="M182.47,326.36c4.91,16.78,3.84,22.09,1.55,23.49-1.08.66-2.35.4-7.23,1.9-4.26,1.32-4.52,1.9-5.34,1.53-2.62-1.22-.42-7.57-4.14-16.63-.21-.53-.41-.95-.54-1.25Z"/><path class="cls-21" d="M156.94,338.11l-31.57,35.35,67,68.55-29.4,27s-92.4-59-94.69-71.14S58,365.13,103.09,308,156.94,338.11,156.94,338.11Z"/><path class="cls-22" d="M98.63,297.72c0,23.25,25.91,39.33,47.42,40.73,23.52,1.54,50.8-13.91,53-35.65C201.44,279,173,256,146.05,257,124.16,257.78,98.61,274.61,98.63,297.72Z"/><polygon class="cls-5" points="178.2 471.98 201.49 486.14 323.16 486.6 299.36 473.86 178.2 471.98"/><path class="cls-16" d="M187.07,445.82a76,76,0,0,0,35.77,15.5,18.75,18.75,0,0,1-2.25,7.65c-3.57,6.46-9.94,8.62-11.79,9.25a25.7,25.7,0,0,1-11,1,36.49,36.49,0,0,1-14.88-4.59A41.18,41.18,0,0,1,169.5,463Z"/><path class="cls-5" d="M201.94,480.93a12.12,12.12,0,0,0,.6,3.17c4.63,4.48,10.4,2.33,15.6,2.36,38.34.21,76.65.12,115,.15h1.28c1.89-2.42,4.94-10.67,8.28-21v-.09s0-.06,0-.09c7.68-23.7,16.89-58.24,17.22-59.14a13.49,13.49,0,0,0,.44-1.52,11.49,11.49,0,0,0,.39-2.69c-.48-3-1.13-5.83-5.2-5.35h-1.1q-31.61-.09-63.24-.21c-3.67,0-7.32,0-11,0h-.3c-8,0-52.6-2.48-54-1.86l-.15.06c-.36.18-18.38,62.82-19.67,67.69-.15.63-.29,1.23-.47,1.85-.06.27-.15.57-.21.84C204.69,470.41,201.58,475.43,201.94,480.93Z"/><path class="cls-23" d="M101.3,310.27a230.17,230.17,0,0,0-22.5,56.61c-2.61,10.61-3,15.61-2.5,20.5,2.17,22.75,21.55,37.67,29.74,43.25A178.3,178.3,0,0,1,68.72,399.1a63.66,63.66,0,0,1-2.12-22.33c.29-3.44,1.42-13.23,11.82-32.61A204.39,204.39,0,0,1,101.3,310.27Z"/><path class="cls-24" d="M184.78,186.86c.51.53,8.14,8.77,5.35,18.19a16.28,16.28,0,0,1-4.33,7,131.2,131.2,0,0,0-42.67,41.33,32.69,32.69,0,0,1-4.83,6c-7.46,7.29-14.18,6.74-20.17,12.34-3.94,3.68-5.24,7.87-7,13.5-5.42,17.38.23,34,3.05,41a34,34,0,0,1-13.38-39.48c3.93-12.81,13.57-19.63,18.83-23.34a58.63,58.63,0,0,1,18.69-8.74,66.32,66.32,0,0,1,5.46-11.8,62.74,62.74,0,0,1,4.18-6.25c5.43-7.47,10.53-11,14.32-12.91a39.25,39.25,0,0,0,10-6.46,35.35,35.35,0,0,0,4.06-4.35,24,24,0,0,0,4.94-12c.23-2.39,0-5.21,1.33-9.16A25.66,25.66,0,0,1,184.78,186.86Z"/><path class="cls-24" d="M269.42,335.58c3.64-1.82,10.42-6,12.33-13.21,3.23-12.27-9.81-25-20.62-29.82s-22.37-3.21-22.47-2.44c0,.4,3.08.65,7.09,2.33,7.51,3.16,11.86,8.7,14.15,11.62C269.46,316.25,269.5,331.77,269.42,335.58Z"/><path class="cls-25" d="M223.17,287.43a79.19,79.19,0,0,1-30.08-8.79,54.25,54.25,0,0,1,13.23.73,50.68,50.68,0,0,1,6.1,1.47c1.91.6,5.79,2,7.5,2.67.5.21,1,.33,1.54.55a2.54,2.54,0,0,0,1.54.34,1.28,1.28,0,0,0,.46-.18c1.45-.43,2.63.3,2.75,1,.1.56-.41,1.26-1.2,1.67Z"/><path class="cls-25" d="M225.36,278.52a21.22,21.22,0,0,0-7.72-.95c.38.32.91.76,1.53,1.31s1.14,1,1.63,1.49c1.11,1.09.88,1.07,1.83,2a6.35,6.35,0,0,1,.67.93,1.24,1.24,0,0,1,.22.67s0,.08,0,.1H224a3.55,3.55,0,0,1,1.45.18,1.63,1.63,0,0,1,.79,1C225.93,283,225.64,280.77,225.36,278.52Z"/></g></g></g></svg>